<?xml version="1.0" encoding="UTF-8" standalone="no"?>
<svg
   width="180"
   height="46"
   viewBox="0 0 180 46"
   fill="none"
   version="1.1"
   id="svg4"
   sodipodi:docname="logo.svg"
   inkscape:version="1.1.1 (3bf5ae0d25, 2021-09-20)"
   xmlns:inkscape="http://www.inkscape.org/namespaces/inkscape"
   xmlns:sodipodi="http://sodipodi.sourceforge.net/DTD/sodipodi-0.dtd"
   xmlns="http://www.w3.org/2000/svg"
   xmlns:svg="http://www.w3.org/2000/svg">
  <defs
     id="defs8" />
  <sodipodi:namedview
     id="namedview6"
     pagecolor="#ffffff"
     bordercolor="#666666"
     borderopacity="1.0"
     inkscape:pageshadow="2"
     inkscape:pageopacity="0.0"
     inkscape:pagecheckerboard="0"
     showgrid="false"
     inkscape:zoom="3.9111111"
     inkscape:cx="97.670454"
     inkscape:cy="45.127841"
     inkscape:window-width="1866"
     inkscape:window-height="1016"
     inkscape:window-x="54"
     inkscape:window-y="27"
     inkscape:window-maximized="1"
     inkscape:current-layer="svg4" />
  <path
     id="path1101"
     style="fill:#fe0000;fill-opacity:1;stroke-width:0.841793"
     d="m 118.75212,0.26580036 c -5.10895,0 -9.18684,1.54716944 -10.41286,3.50644924 -0.11146,0.1781211 -0.199,0.3598005 -0.26197,0.5438761 -0.0315,0.092062 -0.0568,0.1850785 -0.0757,0.278289 -0.0378,0.1864176 -0.0499,0.3746218 -0.0352,0.5644408 0.0373,0.4745554 0.24346,0.9572525 0.63946,1.4344056 0.91495,1.1024781 1.37441,1.049409 3.77323,-0.4331619 3.95325,-2.4432333 9.83312,-3.0982857 11.63433,-1.2970789 1.84505,1.8450412 1.78491,3.6284913 -0.23657,6.9439287 -1.49598,2.453558 -8.09104,6.775065 -8.98087,5.885219 -0.20283,-0.202825 0.44274,-2.537201 1.4344,-5.187684 1.89685,-5.0697177 1.50164,-6.7670427 -1.44408,-6.2046386 -1.11684,0.2133291 -2.76248,3.2408622 -5.77086,10.6167376 -2.31495,5.67567 -5.05323,11.354413 -6.08426,12.618627 -1.07562,1.318849 -1.64031,1.941248 -1.75745,0.526308 -0.16379,-1.978198 -3.442753,2.014643 -1.341253,2.877884 0.656573,0.269695 1.481543,0.339605 2.368483,0.238962 0.17745,-0.02017 0.35748,-0.04751 0.53904,-0.08097 1.81563,-0.335591 3.79538,-1.329459 5.09027,-2.747207 1.25209,-1.370863 2.92185,-3.923701 3.71033,-5.672259 1.22062,-2.706804 1.93217,-3.259665 4.79202,-3.716971 9.65204,-1.543432 16.03819,-9.048423 13.30769,-15.6404685 -1.29218,-3.1196433 -5.45981,-5.05458944 -10.88838,-5.05458944 z M 17.511044,0.31900726 c -1.066608,-0.071047 -2.215452,0.1509475 -3.065423,0.68967034 -0.898693,0.5696041 -0.922034,1.047687 -0.114953,2.3400584 0.107011,0.1713536 0.193597,0.3472577 0.256518,0.5390392 0.09438,0.2876638 0.135644,0.6107042 0.113718,1.0066839 -0.02194,0.395968 -0.106875,0.8650461 -0.265587,1.4440761 -0.423248,1.5440871 -1.369743,3.8722788 -3.033348,7.6928798 -0.526922,1.210108 -1.002967,2.3282 -1.4313811,3.365499 -0.856807,2.074585 -1.521894,3.825056 -2.017595,5.33709 -1.23925,3.780133 -1.418857,6.07017 -0.881454,8.211352 0.47103,1.876712 0.987016,2.150702 4.0581881,2.150702 0.392879,0 0.749446,-0.0064 1.079275,-0.02724 0.32999,-0.02005 0.633781,-0.0532 0.92078,-0.104626 1.434967,-0.257512 2.458466,-0.979824 4.327399,-2.883321 0.37379,-0.380691 0.781443,-0.808903 1.232941,-1.289816 0.555689,-0.591888 1.085681,-1.139523 1.568707,-1.623138 1.207094,-1.208579 2.118388,-2.015857 2.389054,-2.106543 0.02705,-0.0095 0.04783,-0.0106 0.06165,-0.0064 0.01383,0.0064 0.02121,0.01901 0.02121,0.0399 0,0.04181 -0.01802,0.116909 -0.05258,0.221429 -0.103778,0.313516 -0.355576,0.891914 -0.707217,1.634646 -0.468866,0.990307 -1.115429,2.272373 -1.82703,3.607491 -0.509837,0.956536 -1.134738,1.969236 -1.825213,2.983129 -0.690485,1.013914 -1.446788,2.028989 -2.220261,2.991004 -0.51566,0.641351 -1.039022,1.259496 -1.555407,1.837324 -0.516385,0.577817 -1.026064,1.11522 -1.51425,1.597136 -0.244092,0.240958 -0.482869,0.468465 -0.714483,0.679387 -0.926331,0.843479 -1.738527,1.430555 -2.3206961,1.631617 -0.145549,0.05025 -0.277016,0.07622 -0.392021,0.07622 -0.103036,3e-5 -0.202665,0.0064 -0.298248,0.02058 -0.09575,0.01317 -0.188068,0.0323 -0.27587,0.05754 -0.263169,0.07549 -0.489369,0.201631 -0.670921,0.359959 -0.121117,0.10557 -0.222598,0.2253 -0.301882,0.35451 -0.158573,0.25845 -0.228818,0.553811 -0.193602,0.842739 0.01761,0.144466 0.06165,0.287387 0.134327,0.423494 0.109006,0.204144 0.282215,0.392725 0.52753,0.548098 1.467909,0.929751 1.170192,0.955553 4.3443421,-0.373271 3.169264,-1.326789 7.907421,-6.345166 11.043254,-11.696034 2.115553,-3.609881 9.351962,-22.190816 11.27072,-28.5996318 0.274109,-0.9155526 0.439784,-1.5824088 0.466432,-1.9220239 0.08877,-1.1321335 -0.45851,-1.76821574 -1.668527,-1.94077304 -0.190261,-0.027126 -0.373969,-0.027981 -0.55779,0.00842 -0.09196,0.018261 -0.184013,0.045604 -0.277075,0.08351 -0.372111,0.1517907 -0.760962,0.471516 -1.225079,1.03995794 -0.58038,0.7108485 -1.278643,1.8110256 -2.209977,3.4592575 -0.745075,1.3185957 -1.639526,2.9881866 -2.74176,5.0896713 -1.556355,2.967303 -3.034607,5.624267 -4.412703,7.940931 -0.689049,1.158325 -1.352875,2.231781 -1.989157,3.216051 -3.181425,4.921337 -5.668903,7.619071 -7.121182,7.619071 -0.477767,0 -0.849624,-0.09006 -1.110143,-0.301883 -0.08689,-0.07052 -0.161369,-0.154589 -0.223233,-0.253478 -0.494818,-0.79103 -0.183708,-2.523784 1.042374,-5.801734 0.613046,-1.63889 1.455216,-3.664416 2.539094,-6.151324 C 16.306887,14.968327 16.85472,13.699625 17.34107,12.55514 20.745472,4.5434767 21.12736,2.6383451 20.085847,1.3833987 19.562808,0.75316416 18.577673,0.38911946 17.511068,0.31802686 Z M 98.039517,11.198304 c -0.13237,-0.0042 -0.26877,-9.6e-5 -0.40715,0.01573 -0.66427,0.07601 -1.37907,0.396581 -1.96798,0.985503 -0.78568,0.785678 -1.23558,0.785678 -2.02125,0 -1.350727,-1.350698 -4.452415,-1.276818 -7.237935,0.172423 -8.917003,4.639512 -11.834279,18.552609 -4.377609,20.877738 1.865029,0.581564 3.912861,-0.134272 5.547636,-1.940762 1.749488,-1.933161 2.869407,-2.055267 2.869407,-0.310963 0,1.783535 3.384681,2.929309 5.472611,1.852442 3.39465,-1.75085 3.8656,-3.98315 0.84093,-3.983161 -2.84032,0 -2.74635,-1.987266 0.42167,-8.974235 1.38898,-3.063291 2.52578,-6.274359 2.52578,-7.136303 0,-0.977228 -0.73959,-1.522222 -1.66611,-1.558412 z m -24.220257,0.0084 c -1.622453,-0.02502 -3.512267,1.041595 -5.551261,3.186396 l -3.026097,3.18399 v -2.973489 c 0,-2.74213 -0.196492,-2.972858 -2.525778,-2.972858 -1.320994,0 -1.949305,0.06271 -2.209369,0.584405 -0.02894,0.05795 -0.05352,0.121333 -0.0738,0.19118 -0.12143,0.419068 -0.09491,1.06217 -0.01628,2.046029 0.01773,0.222578 0.01722,0.473998 -0.0013,0.752591 -0.03684,0.557179 -0.145004,1.222229 -0.319435,1.978885 -0.174412,0.756635 -0.414828,1.604938 -0.717495,2.528187 -0.454013,1.384883 -1.047331,2.938841 -1.763507,4.606288 -3.092711,7.200606 -3.158492,8.778222 -0.369642,8.778222 1.067008,0 2.431514,-1.580394 4.178576,-4.839825 2.73742,-5.107048 8.928388,-12.253157 10.469729,-12.334257 0.0532,-0.002 0.100395,0.0021 0.142174,0.01699 0.08382,0.02871 0.143811,0.09259 0.177856,0.194812 0.198668,0.595987 -0.625936,3.283186 -1.832478,5.971716 -1.206561,2.688583 -2.193649,5.860716 -2.193649,7.049806 0,4.097895 5.554303,5.727822 8.207722,2.409017 1.569148,-1.962659 1.288296,-2.677022 -1.052048,-2.677022 -1.157461,0 -2.104724,-0.291305 -2.104724,-0.647327 0,-0.355998 1.162724,-3.412911 2.58325,-6.793888 2.431821,-5.787809 2.504446,-6.267138 1.24324,-8.19197 C 76.954499,13.086025 76.840233,12.927974 76.72313,12.78029 76.605923,12.632477 76.485624,12.495835 76.361961,12.368896 76.238413,12.242049 76.111814,12.125267 75.982036,12.01922 75.333137,11.489006 74.607942,11.218899 73.819247,11.206748 Z m 98.7994,0.0031 c -1.22691,0 -2.60575,1.670498 -5.0461,6.116918 -3.31811,6.045776 -8.78964,12.363979 -9.81757,11.336044 -0.29164,-0.291621 0.67177,-3.418634 2.14159,-6.949375 3.37387,-8.104229 3.21829,-10.083146 -0.79492,-10.083146 -2.78104,0 -2.93249,0.145026 -2.70183,2.586886 0.13441,1.422805 -0.56918,4.452924 -1.56387,6.733998 -2.6841,6.155369 -3.15139,8.169365 -2.37877,10.257983 1.18256,3.1967 5.16307,2.510588 9.70082,-1.672157 l 3.86096,-3.558475 -1.39811,3.349157 c -2.62514,6.286205 -5.39383,10.170042 -8.40374,11.790995 -3.04397,1.639294 -3.46166,2.185765 -2.44651,3.200936 1.2854,1.285391 4.61426,0.399727 7.27302,-1.934713 3.55014,-3.117027 7.30398,-10.091266 11.15095,-20.718645 3.12306,-8.627654 3.19709,-10.456416 0.42408,-10.456416 z m -126.894522,0.0031 c -2.581375,0.07982 -5.988646,1.712738 -8.374088,4.335263 -0.555175,0.610344 -1.065054,1.268524 -1.526965,1.959525 -3.117859,4.664246 -4.042743,10.816796 -1.853646,13.737805 0.08108,0.108124 0.166245,0.211884 0.255898,0.310963 1.04e-4,1.06e-4 4.31e-4,-1.06e-4 4.31e-4,0 1.639319,1.811448 5.270304,1.980858 7.445446,0.566859 0.155356,-0.101042 0.303603,-0.210121 0.442841,-0.327284 0.139251,-0.117167 0.269602,-0.242415 0.390218,-0.375689 1.50747,-1.665727 1.525821,-1.663499 3.45381,0.41683 0.631544,0.681457 1.105171,1.129896 1.557811,1.382973 0.150882,0.08435 0.299421,0.146904 0.450707,0.189354 0.605296,0.170055 1.253985,0.01594 2.271692,-0.370854 1.287987,-0.489685 2.628722,-1.340765 2.978303,-1.890553 0.680193,-1.069708 0.797344,-1.685457 0.257112,-1.997032 -0.107962,-0.06229 -0.241646,-0.112768 -0.40292,-0.151843 -0.32253,-0.07834 -0.753383,-0.11251 -1.298283,-0.11251 -2.813654,0 -2.724378,-1.47274 0.57232,-9.481193 2.107409,-5.11941 2.468673,-6.756009 1.669127,-7.555559 -0.799542,-0.799541 -1.4026,-0.781551 -2.78289,0.08044 -1.263671,0.789183 -2.018836,0.842033 -2.672191,0.188753 -0.658852,-0.658845 -1.661567,-0.942516 -2.834917,-0.906253 z m 103.294362,0.0042 c -0.13237,-0.0042 -0.26874,-9.5e-5 -0.40715,0.01574 -0.4982,0.05701 -1.02453,0.251355 -1.50517,0.593472 -0.16023,0.11403 -0.31558,0.2448 -0.46282,0.392031 -0.29461,0.294621 -0.54181,0.478686 -0.77739,0.552343 -0.39262,0.122772 -0.75281,-0.06134 -1.24382,-0.552343 -1.35072,-1.350689 -4.45242,-1.27683 -7.23795,0.1724 -8.91701,4.639521 -11.83429,18.552619 -4.37762,20.877771 1.86503,0.581543 3.91286,-0.134286 5.54763,-1.940773 1.74949,-1.933163 2.86941,-2.055289 2.86941,-0.310953 0,1.783514 3.38468,2.928696 5.47263,1.851829 3.39464,-1.75085 3.86559,-3.982568 0.84092,-3.982568 -2.84032,0 -2.74634,-1.98788 0.42166,-8.974839 1.38898,-3.063289 2.52519,-6.273757 2.52519,-7.135688 0,-0.977249 -0.73899,-1.522245 -1.66552,-1.558425 z M 45.556556,14.575621 c 0.158925,0 0.307997,0.0064 0.44769,0.01815 0.139688,0.01235 0.269703,0.03167 0.390203,0.05742 1.68765,0.361605 1.496599,2.081871 -0.506354,6.456915 -3.677224,8.032101 -8.005065,11.312341 -8.005065,6.06731 0,-5.199466 4.507093,-12.599847 7.673526,-12.599847 z m 45.428323,0.0031 c 0.672903,0.01859 1.236876,0.287252 1.57233,0.830031 0.681757,1.103089 -3.362225,9.941138 -5.674678,12.402625 -1.877224,1.998376 -2.535285,2.252698 -3.4526,1.335373 -1.685945,-1.685943 0.597726,-9.238705 3.83495,-12.684557 1.173652,-1.249286 2.59849,-1.914179 3.719998,-1.883279 z m 50.978981,0.01985 c 0.67292,0.01858 1.23687,0.287261 1.57234,0.830028 0.68176,1.103091 -3.36224,9.941141 -5.67468,12.402637 -1.87722,1.998184 -2.53528,2.252518 -3.4526,1.335181 -1.68594,-1.685933 0.59772,-9.238706 3.83495,-12.684546 1.17366,-1.249287 2.59849,-1.91419 3.71999,-1.8833 z"
     sodipodi:nodetypes="cscccccsssccccssccsscscccssscssscssccsssccscccssssccccccccscssscsccsssscscccccscccccccccscscsccccssccccccssccccsscsscssccccscscsccccccsccsscsccsccsccccccccscscccscsssscscscscsssccccscccsscscccccsc" />
</svg>
